<?xml version="1.0" standalone="no"?>
<!DOCTYPE svg PUBLIC "-//W3C//DTD SVG 20010904//EN"
 "http://www.w3.org/TR/2001/REC-SVG-20010904/DTD/svg10.dtd">
<svg version="1.0" xmlns="http://www.w3.org/2000/svg"
 width="256.000000pt" height="256.000000pt" viewBox="0 0 256.000000 256.000000"
 preserveAspectRatio="xMidYMid meet">
<metadata>
Created by potrace 1.14, written by Peter Selinger 2001-2017
</metadata>
<g transform="translate(0.000000,256.000000) scale(0.100000,-0.100000)"
fill="#000000" stroke="none">
<path d="M109 2537 c-24 -13 -57 -43 -74 -66 l-30 -43 -3 -1140 -2 -1141 21
-44 c12 -25 40 -58 62 -74 l40 -29 1161 0 1161 0 37 25 c20 13 45 40 57 58
l21 34 0 1160 0 1160 -29 40 c-16 22 -49 50 -73 62 l-44 21 -1131 0 -1130 0
-44 -23z m1431 -582 c0 -12 19 -15 110 -15 l110 0 0 -30 c0 -52 -30 -182 -54
-235 -38 -83 -80 -123 -191 -177 -55 -27 -111 -59 -125 -72 -14 -13 -36 -29
-48 -36 -23 -11 -24 -16 -20 -107 3 -93 4 -95 36 -124 l32 -29 -110 0 -110 0
32 29 c32 29 33 31 36 124 4 91 3 96 -20 107 -12 7 -34 23 -48 36 -14 13 -70
45 -125 72 -111 54 -153 94 -191 177 -24 53 -54 183 -54 235 l0 30 110 0 c91
0 110 3 110 15 0 13 36 15 260 15 224 0 260 -2 260 -15z m-70 -915 l0 -60
-190 0 -190 0 0 60 0 60 190 0 190 0 0 -60z m-1143 -191 c29 -11 43 -26 43
-48 0 -10 -8 -12 -32 -7 -85 18 -94 18 -107 2 -11 -13 -11 -19 0 -32 13 -16
22 -16 107 2 24 5 32 3 32 -7 -1 -49 -84 -74 -159 -48 -37 13 -55 49 -45 92
10 48 94 72 161 46z m163 -19 c0 -29 1 -30 50 -30 49 0 50 1 50 30 0 27 3 30
30 30 l30 0 0 -80 0 -80 -30 0 c-25 0 -30 4 -30 25 0 23 -3 25 -50 25 -47 0
-50 -2 -50 -25 0 -21 -5 -25 -30 -25 l-30 0 0 80 0 80 30 0 c27 0 30 -3 30
-30z m390 -50 l40 -80 -35 0 c-24 0 -35 5 -35 15 0 11 -12 15 -44 15 -30 0
-46 -5 -50 -15 -5 -14 -66 -23 -66 -10 0 8 50 106 68 133 10 15 24 22 48 22
32 0 36 -4 74 -80z m140 25 l0 -55 65 0 c63 0 65 -1 65 -25 0 -25 0 -25 -95
-25 l-95 0 0 80 0 80 30 0 c30 0 30 -1 30 -55z m240 0 l0 -55 65 0 c63 0 65
-1 65 -25 0 -25 0 -25 -95 -25 l-95 0 0 80 0 80 30 0 c30 0 30 -1 30 -55z
m370 35 c0 -18 -7 -20 -65 -20 -83 0 -85 -18 -3 -22 50 -2 63 -6 66 -20 3 -16
-5 -18 -62 -18 -37 0 -66 -4 -66 -10 0 -6 28 -10 65 -10 58 0 65 -2 65 -20 0
-19 -7 -20 -95 -20 l-95 0 0 80 0 80 95 0 c88 0 95 -1 95 -20z m182 -22 l37
-43 1 43 c0 40 1 42 30 42 l30 0 0 -80 0 -80 -34 0 c-28 0 -42 8 -74 45 -22
25 -42 45 -46 45 -3 0 -6 -20 -6 -45 0 -43 -1 -45 -30 -45 l-30 0 0 80 0 80
42 0 c37 0 47 -5 80 -42z m338 17 c34 -31 24 -38 -43 -31 -49 6 -66 4 -75 -7
-22 -27 -4 -47 42 -46 22 1 31 4 19 6 -13 2 -23 11 -23 19 0 12 11 14 53 12
l52 -3 3 -42 c2 -33 0 -43 -12 -43 -8 0 -16 4 -18 9 -2 6 -20 5 -45 -1 -57
-16 -120 3 -134 39 -16 42 -2 83 34 99 41 19 121 12 147 -11z m280 5 c0 -18
-7 -20 -65 -20 -83 0 -85 -18 -3 -22 50 -2 63 -6 66 -20 3 -16 -5 -18 -62 -18
-37 0 -66 -4 -66 -10 0 -6 28 -10 65 -10 58 0 65 -2 65 -20 0 -19 -7 -20 -95
-20 l-95 0 0 80 0 80 95 0 c88 0 95 -1 95 -20z m-1650 -270 c0 -29 1 -30 50
-30 49 0 50 1 50 30 0 27 3 30 30 30 l30 0 0 -80 0 -80 -30 0 c-25 0 -30 4
-30 25 0 23 -3 25 -50 25 -47 0 -50 -2 -50 -25 0 -21 -5 -25 -30 -25 l-30 0 0
80 0 80 30 0 c27 0 30 -3 30 -30z m420 10 c0 -18 -7 -20 -65 -20 -83 0 -85
-18 -3 -22 50 -2 63 -6 66 -20 3 -16 -5 -18 -62 -18 -37 0 -66 -4 -66 -10 0
-6 28 -10 65 -10 58 0 65 -2 65 -20 0 -19 -7 -20 -95 -20 l-95 0 0 80 0 80 95
0 c88 0 95 -1 95 -20z m260 -5 c0 -22 -4 -25 -35 -25 l-35 0 0 -55 c0 -54 0
-55 -30 -55 -30 0 -30 1 -30 55 l0 55 -40 0 c-36 0 -40 3 -40 25 l0 25 105 0
105 0 0 -25z m110 -55 l0 -80 -30 0 -30 0 0 80 0 80 30 0 30 0 0 -80z m227 69
c29 -11 43 -26 43 -48 0 -10 -8 -12 -32 -7 -85 18 -94 18 -107 2 -11 -13 -11
-19 0 -32 13 -16 22 -16 107 2 24 5 32 3 32 -7 -1 -49 -84 -74 -159 -48 -37
13 -55 49 -45 92 10 48 94 72 161 46z"/>
<path d="M860 1872 c0 -5 9 -44 20 -86 24 -94 52 -146 99 -184 37 -30 101 -66
101 -57 0 2 -12 39 -26 81 -16 48 -28 111 -31 165 l-6 89 -78 0 c-44 0 -79 -4
-79 -8z"/>
<path d="M1537 1791 c-3 -54 -15 -117 -31 -165 -14 -42 -26 -79 -26 -81 0 -9
64 27 101 57 47 38 75 90 99 184 11 42 20 81 20 86 0 4 -35 8 -79 8 l-78 0 -6
-89z"/>
<path d="M791 791 c-10 -18 -9 -21 9 -21 22 0 25 7 11 29 -7 11 -11 9 -20 -8z"/>
</g>
</svg>
